# Blender v2.92.0 OBJ File: 'robot.blend'
# www.blender.org
mtllib robot.mtl
o character_Cube
v 0.079867 0.000027 -0.772237
v 0.079867 0.000027 -0.681110
v -0.057792 0.000027 -0.803259
v 0.017824 0.000027 -0.696621
v 0.031396 0.000027 -0.681110
v 0.046907 0.000027 -0.803259
v 0.017824 0.000027 -0.710193
v -0.028709 0.000027 -0.710193
v -0.044220 0.000027 -0.770298
v -0.057792 0.000027 -0.770298
v -0.005442 0.000027 -0.710193
v 0.013946 0.000027 -0.690805
v -0.007381 0.000027 -0.702438
v -0.011259 0.000027 -0.803259
v -0.044220 0.000027 -0.809075
v -0.022892 0.000027 -0.807137
v -0.030648 0.000027 -0.812953
v -0.024831 0.000027 -0.812953
v -0.040342 0.000027 -0.812953
v 0.013946 0.000027 -0.681110
v 0.027518 0.000027 -0.681110
v -0.013198 0.000027 -0.696621
v -0.028709 0.000027 -0.696621
v -0.040342 0.000027 -0.712132
v -0.051975 0.000027 -0.712132
v -0.059730 0.000027 -0.712132
v -0.063608 0.000027 -0.725704
v -0.063608 0.000027 -0.774176
v -0.067486 0.000027 -0.772237
v -0.067486 0.000027 -0.725704
v -0.069425 0.000027 -0.727643
v -0.069425 0.000027 -0.766420
v -0.071364 0.000027 -0.768359
v -0.071364 0.000027 -0.721826
v -0.073302 0.000027 -0.719888
v -0.073302 0.000027 -0.665600
v -0.059730 0.000027 -0.723765
v -0.057792 0.000027 -0.634578
v -0.057792 0.000027 -0.591923
v -0.044220 0.000027 -0.572534
v -0.044220 0.000027 -0.529879
v -0.028709 0.000027 -0.522124
v -0.028709 0.000027 -0.514368
v 0.033335 0.000027 -0.514368
v 0.048846 0.000027 -0.520185
v 0.048846 0.000027 -0.527940
v 0.064357 0.000027 -0.539573
v 0.064357 0.000027 -0.650089
v 0.046907 0.000027 -0.663661
v 0.033335 0.000027 -0.663661
v 0.027518 0.000027 -0.514368
v -0.022892 0.000027 -0.514368
v 0.025579 0.000027 -0.512429
v -0.020953 0.000027 -0.512429
v 0.025579 0.000027 -0.510490
v -0.020953 0.000027 -0.510490
v 0.033335 0.000027 -0.508552
v -0.036464 0.000027 -0.506613
v 0.033335 0.000027 -0.502735
v 0.048846 0.000027 -0.498857
v 0.048846 0.000027 -0.475591
v 0.046907 0.000027 -0.460080
v 0.033335 0.000027 -0.452325
v 0.033335 0.000027 -0.438753
v -0.013198 0.000027 -0.438753
v -0.017076 0.000027 -0.450386
v -0.042281 0.000027 -0.452325
v -0.042281 0.000027 -0.491102
v 0.033676 -0.009667 -0.504524
v 0.049187 -0.009667 -0.485135
v 0.049187 -0.009667 -0.446358
v 0.033676 -0.009667 -0.423092
v 0.033676 -0.009667 -0.359109
v 0.018165 -0.009667 -0.347476
v 0.016226 -0.009667 -0.287371
v 0.002654 -0.009667 -0.287371
v 0.002654 -0.009667 -0.273799
v 0.016226 -0.009667 -0.273799
v 0.016226 -0.009667 -0.242777
v -0.014796 -0.009667 -0.213694
v -0.043878 -0.009667 -0.213694
v -0.059389 -0.009667 -0.229205
v -0.059389 -0.009667 -0.242777
v -0.059389 -0.009667 -0.273799
v -0.043878 -0.009667 -0.273799
v -0.043878 -0.009667 -0.287371
v -0.059389 -0.009667 -0.287371
v -0.072961 -0.009667 -0.299004
v -0.072961 -0.009667 -0.362987
v -0.072961 -0.009667 -0.425030
v 0.000715 -0.009667 -0.516157
v -0.028368 -0.009667 -0.500646
v 0.033676 -0.009667 -0.516157
v -0.059389 -0.009667 -0.469624
v -0.059389 0.009722 -0.469624
v 0.033676 0.009722 -0.516157
v -0.028368 0.009722 -0.500646
v 0.000715 0.009722 -0.516157
v -0.072961 0.009722 -0.425030
v -0.072961 0.009722 -0.362987
v -0.072961 0.009722 -0.299004
v -0.059389 0.009722 -0.287371
v -0.043879 0.009722 -0.287371
v -0.043879 0.009722 -0.273799
v -0.059389 0.009722 -0.273799
v -0.059389 0.009722 -0.242777
v -0.059389 0.009722 -0.229205
v -0.043879 0.009722 -0.213694
v -0.014796 0.009722 -0.213694
v 0.016226 0.009722 -0.242777
v 0.016226 0.009722 -0.273799
v 0.002654 0.009722 -0.273799
v 0.002654 0.009722 -0.287371
v 0.016226 0.009722 -0.287371
v 0.018165 0.009722 -0.347476
v 0.033676 0.009722 -0.359109
v 0.033676 0.009722 -0.423092
v 0.049187 0.009722 -0.446358
v 0.049187 0.009722 -0.485135
v 0.033676 0.009722 -0.504524
v 0.002654 0.009722 -0.211756
v 0.002654 0.009722 -0.165223
v -0.010918 0.009722 -0.151651
v -0.010918 0.009722 -0.138079
v 0.000715 0.009722 -0.116751
v 0.000715 0.009722 -0.062463
v -0.018673 0.009722 -0.060524
v -0.038062 0.009722 -0.060524
v -0.043879 0.009722 -0.066341
v -0.043879 0.009722 -0.077974
v -0.057451 0.009722 -0.097363
v -0.057451 0.009722 -0.120629
v -0.072961 0.009722 -0.151651
v -0.072961 0.009722 -0.227266
v -0.008979 0.009722 -0.061494
v -0.040970 0.009722 -0.063433
v -0.041940 0.009722 -0.058585
v -0.007040 0.009722 -0.058585
v 0.000715 0.009722 -0.056646
v 0.010410 0.009722 -0.056646
v 0.018165 0.009722 -0.046952
v -0.047756 0.009722 -0.046952
v -0.059389 0.009722 -0.046952
v -0.059389 0.009722 -0.015930
v -0.043879 0.009722 -0.000419
v 0.064698 0.009722 -0.000419
v 0.064698 0.009722 -0.029502
v 0.033676 0.009722 -0.039197
v 0.002654 -0.009667 -0.211756
v 0.002654 -0.009667 -0.165223
v -0.010918 -0.009667 -0.151651
v -0.010918 -0.009667 -0.138079
v 0.000715 -0.009667 -0.116751
v 0.000715 -0.009667 -0.062463
v -0.018673 -0.009667 -0.060524
v -0.038062 -0.009667 -0.060524
v -0.043878 -0.009667 -0.066341
v -0.043878 -0.009667 -0.077974
v -0.057450 -0.009667 -0.097363
v -0.057450 -0.009667 -0.120629
v -0.072961 -0.009667 -0.151651
v -0.072961 -0.009667 -0.227266
v -0.008979 -0.009667 -0.061494
v -0.040970 -0.009667 -0.063432
v -0.041940 -0.009667 -0.058585
v -0.007040 -0.009667 -0.058585
v 0.000715 -0.009667 -0.056646
v 0.010410 -0.009667 -0.056646
v 0.018165 -0.009667 -0.046952
v -0.047756 -0.009667 -0.046952
v -0.059389 -0.009667 -0.046952
v -0.059389 -0.009667 -0.015930
v -0.043878 -0.009667 -0.000419
v 0.064698 -0.009667 -0.000419
v 0.064698 -0.009667 -0.029502
v 0.033676 -0.009667 -0.039197
v -0.361071 0.019340 -0.649288
v -0.376582 0.019340 -0.622144
v -0.345560 0.019340 -0.664799
v -0.225351 0.019340 -0.664799
v -0.368826 0.019340 -0.610511
v -0.330049 0.019340 -0.610511
v -0.330049 0.019340 -0.595000
v -0.299027 0.019340 -0.595000
v -0.299027 0.019340 -0.608572
v -0.287394 0.019340 -0.587245
v -0.240862 0.019340 -0.587245
v -0.221473 0.019340 -0.602755
v -0.163307 0.019340 -0.602755
v -0.163307 0.019340 -0.618266
v -0.151674 0.019340 -0.618266
v -0.134224 0.019340 -0.602755
v -0.134224 0.019340 -0.587245
v -0.095447 0.019340 -0.587245
v -0.095447 0.019340 -0.680310
v -0.134224 0.019340 -0.680310
v -0.143919 0.019340 -0.693882
v -0.124530 0.019340 -0.701637
v -0.118713 0.019340 -0.721026
v -0.124530 0.019340 -0.740415
v -0.143919 0.019340 -0.740415
v -0.163307 0.019340 -0.724904
v -0.194329 0.019340 -0.711332
v -0.209840 0.019340 -0.695821
v -0.209840 0.019340 -0.680310
v -0.287394 0.019340 -0.608572
v -0.293211 0.019340 -0.612450
v -0.299027 0.019340 -0.664799
v -0.287472 0.019824 -0.664799
v -0.293288 0.019340 -0.647349
v -0.299027 0.019340 -0.653166
v -0.287317 0.019340 -0.653166
v -0.089631 0.019340 -0.709393
v -0.074120 0.019340 -0.719087
v -0.085753 0.019340 -0.734598
v -0.074120 0.019340 -0.752048
v -0.033404 0.019340 -0.752048
v -0.027587 0.019340 -0.724904
v 0.001496 0.019340 -0.724904
v 0.001496 0.019340 -0.693882
v -0.012076 0.019340 -0.664799
v 0.017715 0.019340 -0.664053
v 0.046090 0.019340 -0.649288
v 0.053845 0.019340 -0.635716
v 0.053845 0.019340 -0.622144
v 0.032518 0.019340 -0.618266
v 0.032518 0.019340 -0.587245
v 0.001496 0.019340 -0.573673
v -0.089631 0.019340 -0.573673
v 0.350325 -0.019438 -0.588617
v 0.365836 -0.019438 -0.615761
v 0.334815 -0.019438 -0.573106
v 0.214605 -0.019438 -0.573106
v 0.358081 -0.019438 -0.627394
v 0.319304 -0.019438 -0.627394
v 0.319304 -0.019438 -0.642905
v 0.288282 -0.019438 -0.642905
v 0.288282 -0.019438 -0.629333
v 0.276649 -0.019438 -0.650661
v 0.230116 -0.019438 -0.650661
v 0.210727 -0.019438 -0.635150
v 0.152562 -0.019438 -0.635150
v 0.152562 -0.019438 -0.619639
v 0.140929 -0.019438 -0.619639
v 0.123479 -0.019438 -0.635150
v 0.123479 -0.019438 -0.650661
v 0.084702 -0.019438 -0.650661
v 0.084702 -0.019438 -0.557595
v 0.123479 -0.019438 -0.557595
v 0.133173 -0.019438 -0.544023
v 0.113784 -0.019438 -0.536268
v 0.107968 -0.019438 -0.516879
v 0.113784 -0.019438 -0.497491
v 0.133173 -0.019438 -0.497491
v 0.152562 -0.019438 -0.513002
v 0.183583 -0.019438 -0.526574
v 0.199094 -0.019438 -0.542085
v 0.199094 -0.019438 -0.557595
v 0.276649 -0.019438 -0.629333
v 0.282465 -0.019438 -0.625456
v 0.288282 -0.019438 -0.573106
v 0.276726 -0.019438 -0.573106
v 0.282543 -0.019438 -0.590556
v 0.288282 -0.019438 -0.584740
v 0.276571 -0.019438 -0.584740
v 0.078885 -0.019438 -0.528513
v 0.063374 -0.019438 -0.518818
v 0.075007 -0.019438 -0.503307
v 0.063374 -0.019438 -0.485857
v 0.022658 -0.019438 -0.485857
v 0.016841 -0.019438 -0.513002
v -0.012241 -0.019438 -0.513002
v -0.012241 -0.019438 -0.544023
v 0.001330 -0.019438 -0.573106
v -0.028460 -0.019438 -0.573853
v -0.056835 -0.019438 -0.588617
v -0.064591 -0.019438 -0.602189
v -0.064591 -0.019438 -0.615761
v -0.043263 -0.019438 -0.619639
v -0.043263 -0.019438 -0.650661
v -0.012241 -0.019438 -0.664233
v 0.078885 -0.019438 -0.664233
v -0.005455 -0.019438 -0.618670
v -0.005290 0.019340 -0.619236
v -0.005442 0.000027 -0.618953
vt 0.839732 0.474755
vt 0.839732 0.424724
vt 0.867249 0.472253
vt 0.809714 0.367188
vt 0.804711 0.362185
vt 0.814717 0.367188
vt 0.879757 0.329665
vt 0.914778 0.309653
vt 0.914778 0.322161
vt 0.999831 0.309653
vt 0.999831 0.427225
vt 0.919781 0.347176
vt 0.957304 0.467250
vt 0.882258 0.467250
vt 0.919781 0.329665
vt 0.937292 0.309653
vt 0.859744 0.347176
vt 0.889763 0.347176
vt 0.864748 0.479758
vt 0.857243 0.479758
vt 0.844735 0.479758
vt 0.822221 0.467250
vt 0.822221 0.424724
vt 0.887261 0.337170
vt 0.859744 0.329665
vt 0.939794 0.287139
vt 0.932289 0.309653
vt 0.979818 0.269628
vt 0.957304 0.287139
vt 0.839732 0.169567
vt 0.979818 0.127040
vt 0.959806 0.112031
vt 0.889763 0.229456
vt 0.939794 0.094520
vt 0.959806 0.102025
vt 0.859744 0.104527
vt 0.866954 0.094819
vt 0.929831 0.094520
vt 0.839732 0.114533
vt 0.822221 0.249616
vt 0.822221 0.194582
vt 0.802209 0.289641
vt 0.819720 0.349678
vt 0.802209 0.359684
vt 0.807212 0.369690
vt 0.804711 0.422222
vt 0.807212 0.419721
vt 0.829726 0.349678
vt 0.844735 0.349678
vt 0.819720 0.364687
vt 0.809713 0.427225
vt 0.814716 0.429727
vt 0.927390 0.089695
vt 0.927402 0.092114
vt 0.869361 0.092389
vt 0.869349 0.089970
vt 0.849979 0.085225
vt 0.842632 0.065913
vt 0.842403 0.017545
vt 0.873830 0.014978
vt 0.878598 0.000445
vt 0.936720 0.017098
vt 0.936639 0.000169
vt 0.953694 0.026691
vt 0.956204 0.046027
vt 0.937018 0.079976
vt 0.956342 0.075047
vt 0.937052 0.087231
vt 0.859698 0.094853
vt 0.670588 0.278594
vt 0.707908 0.277323
vt 0.651955 0.316591
vt 0.800176 0.573089
vt 0.801870 0.622850
vt 0.782813 0.648407
vt 0.748987 0.313288
vt 0.732926 0.353689
vt 0.651362 0.299175
vt 0.733519 0.371105
vt 0.673214 0.355722
vt 0.750342 0.353096
vt 0.750935 0.370512
vt 0.756049 0.447556
vt 0.673807 0.373138
vt 0.653310 0.356400
vt 0.783321 0.663336
vt 0.703028 0.646142
vt 0.661864 0.607689
vt 0.741025 0.664775
vt 0.776461 0.461807
vt 0.779256 0.543911
vt 0.639790 0.471441
vt 0.642500 0.551057
vt 0.636995 0.389337
vt 0.653903 0.373816
vt 0.611670 0.663335
vt 0.531376 0.646142
vt 0.490213 0.607689
vt 0.501562 0.355722
vt 0.480303 0.316592
vt 0.536257 0.277323
vt 0.569374 0.664775
vt 0.611162 0.648407
vt 0.470849 0.551057
vt 0.607605 0.543911
vt 0.468138 0.471441
vt 0.584397 0.447556
vt 0.465343 0.389337
vt 0.502155 0.373138
vt 0.482251 0.373816
vt 0.628525 0.573089
vt 0.630219 0.622850
vt 0.604810 0.461807
vt 0.481658 0.356400
vt 0.561867 0.371105
vt 0.579284 0.370513
vt 0.577336 0.313288
vt 0.578691 0.353097
vt 0.561275 0.353689
vt 0.479710 0.299176
vt 0.498937 0.278594
vt 0.538523 0.197538
vt 0.590834 0.051285
vt 0.571269 0.061914
vt 0.489620 0.004913
vt 0.462210 0.297280
vt 0.458906 0.200248
vt 0.477455 0.159762
vt 0.476439 0.129906
vt 0.551926 0.152245
vt 0.493008 0.104433
vt 0.492500 0.089505
vt 0.496105 0.085646
vt 0.499710 0.081787
vt 0.524590 0.080940
vt 0.537072 0.081760
vt 0.549555 0.082581
vt 0.537930 0.180122
vt 0.556532 0.214361
vt 0.558564 0.274073
vt 0.539433 0.077944
vt 0.494649 0.079468
vt 0.486677 0.064794
vt 0.561740 0.074693
vt 0.549300 0.075117
vt 0.471749 0.065302
vt 0.470394 0.025494
vt 0.628948 0.000169
vt 0.630219 0.037490
vt 0.710174 0.197538
vt 0.762486 0.051285
vt 0.742920 0.061914
vt 0.661271 0.004913
vt 0.633861 0.297280
vt 0.630558 0.200248
vt 0.649107 0.159762
vt 0.648090 0.129906
vt 0.723577 0.152245
vt 0.664659 0.104433
vt 0.664151 0.089505
vt 0.667756 0.085646
vt 0.671361 0.081787
vt 0.696241 0.080940
vt 0.708723 0.081760
vt 0.721206 0.082581
vt 0.709581 0.180121
vt 0.728183 0.214361
vt 0.730216 0.274073
vt 0.711084 0.077944
vt 0.666300 0.079468
vt 0.658328 0.064794
vt 0.733392 0.074693
vt 0.720952 0.075117
vt 0.643400 0.065302
vt 0.642045 0.025494
vt 0.800600 0.000169
vt 0.801870 0.037490
vt 0.171942 0.274070
vt 0.171942 0.289007
vt 0.092279 0.311412
vt 0.112195 0.468248
vt 0.042490 0.388585
vt 0.092279 0.361201
vt 0.132243 0.020006
vt 0.181979 0.059980
vt 0.112284 0.040033
vt 0.134658 0.107161
vt 0.179469 0.107279
vt 0.184445 0.114750
vt 0.112211 0.194386
vt 0.112248 0.114621
vt 0.127185 0.114827
vt 0.112256 0.099780
vt 0.127193 0.099787
vt 0.182122 0.010192
vt 0.201895 0.059989
vt 0.184451 0.099813
vt 0.201877 0.099821
vt 0.052448 0.234239
vt 0.072364 0.214324
vt 0.092279 0.214324
vt 0.035022 0.274071
vt 0.074853 0.298965
vt 0.015106 0.323860
vt 0.015106 0.298965
vt 0.040001 0.331328
vt 0.064895 0.323860
vt 0.211773 0.361201
vt 0.191857 0.311412
vt 0.167229 0.000169
vt 0.211773 0.311412
vt 0.191882 0.199394
vt 0.211829 0.114760
vt 0.211806 0.174507
vt 0.191857 0.274077
vt 0.229199 0.368670
vt 0.229199 0.485674
vt 0.211773 0.525505
vt 0.171942 0.525505
vt 0.166963 0.552889
vt 0.149537 0.552889
vt 0.132111 0.542931
vt 0.113153 0.506498
vt 0.074853 0.485674
vt 0.035022 0.448332
vt 0.035022 0.485674
vt 0.170697 0.476961
vt 0.000169 0.440864
vt 0.000169 0.388585
vt 0.022575 0.373649
vt 0.054937 0.368670
vt 0.331544 0.453271
vt 0.276757 0.493078
vt 0.274286 0.453245
vt 0.286795 0.278988
vt 0.286795 0.264051
vt 0.366458 0.241646
vt 0.346542 0.084811
vt 0.416247 0.164473
vt 0.366458 0.191857
vt 0.326494 0.533052
vt 0.346453 0.513025
vt 0.324079 0.445897
vt 0.279268 0.445779
vt 0.274292 0.438308
vt 0.346526 0.358672
vt 0.346489 0.438437
vt 0.331551 0.438232
vt 0.346481 0.453278
vt 0.276614 0.542866
vt 0.256842 0.493069
vt 0.256860 0.453237
vt 0.406289 0.318819
vt 0.386373 0.338734
vt 0.366458 0.338734
vt 0.423715 0.278988
vt 0.383884 0.254093
vt 0.443631 0.229199
vt 0.443631 0.254093
vt 0.418736 0.221730
vt 0.393842 0.229199
vt 0.246964 0.191857
vt 0.266880 0.241646
vt 0.291508 0.552889
vt 0.246964 0.241646
vt 0.266855 0.353664
vt 0.246908 0.438298
vt 0.246930 0.378551
vt 0.266880 0.278981
vt 0.229538 0.184389
vt 0.229538 0.067384
vt 0.246964 0.027553
vt 0.286795 0.027553
vt 0.291774 0.000169
vt 0.309200 0.000169
vt 0.326627 0.010127
vt 0.345584 0.046560
vt 0.383884 0.067384
vt 0.423715 0.104726
vt 0.423715 0.067384
vt 0.288040 0.076098
vt 0.458568 0.112194
vt 0.458568 0.164473
vt 0.436162 0.179410
vt 0.403800 0.184389
vn 0.0000 1.0000 0.0000
vn 0.0078 0.9991 0.0415
usemtl Material
s off
f 15/1/1 9/2/1 16/3/1
f 30/4/1 34/5/1 27/6/1
f 22/7/1 20/8/1 12/9/1
f 2/10/1 1/11/1 7/12/1
f 1/11/1 6/13/1 7/12/1
f 6/13/1 14/14/1 7/12/1
f 4/15/1 5/16/1 7/12/1
f 5/16/1 2/10/1 7/12/1
f 8/17/1 11/18/1 9/2/1
f 11/18/1 7/12/1 14/14/1
f 9/2/1 11/18/1 14/14/1
f 14/14/1 16/3/1 9/2/1
f 16/3/1 18/19/1 17/20/1
f 17/20/1 19/21/1 15/1/1
f 15/1/1 3/22/1 9/2/1
f 3/22/1 10/23/1 9/2/1
f 16/3/1 17/20/1 15/1/1
f 12/9/1 4/15/1 13/24/1
f 4/15/1 7/12/1 11/18/1
f 13/24/1 4/15/1 11/18/1
f 22/7/1 23/25/1 20/8/1
f 13/24/1 22/7/1 12/9/1
f 20/8/1 50/26/1 21/27/1
f 50/26/1 48/28/1 49/29/1
f 48/28/1 40/30/1 47/31/1
f 47/31/1 40/30/1 46/32/1
f 48/28/1 285/33/1 40/30/1
f 46/32/1 44/34/1 45/35/1
f 42/36/1 52/37/1 51/38/1
f 42/36/1 40/30/1 41/39/1
f 40/30/1 38/40/1 39/41/1
f 38/40/1 23/25/1 36/42/1
f 36/42/1 26/43/1 35/44/1
f 34/5/1 31/45/1 33/46/1
f 33/46/1 31/45/1 32/47/1
f 36/42/1 25/48/1 26/43/1
f 35/44/1 26/43/1 34/5/1
f 42/36/1 46/32/1 40/30/1
f 285/33/1 38/40/1 40/30/1
f 46/32/1 42/36/1 44/34/1
f 23/25/1 38/40/1 20/8/1
f 20/8/1 38/40/1 50/26/1
f 25/48/1 23/25/1 24/49/1
f 27/6/1 34/5/1 37/50/1
f 37/50/1 34/5/1 26/43/1
f 25/48/1 36/42/1 23/25/1
f 30/4/1 27/6/1 29/51/1
f 29/51/1 27/6/1 28/52/1
f 34/5/1 30/4/1 31/45/1
f 55/53/1 53/54/1 54/55/1
f 56/56/1 58/57/1 68/58/1
f 68/58/1 67/59/1 66/60/1
f 66/60/1 65/61/1 63/62/1
f 65/61/1 64/63/1 63/62/1
f 63/62/1 62/64/1 61/65/1
f 56/56/1 68/58/1 66/60/1
f 51/38/1 52/37/1 54/55/1
f 54/55/1 56/56/1 55/53/1
f 56/56/1 66/60/1 55/53/1
f 66/60/1 63/62/1 59/66/1
f 63/62/1 61/65/1 59/66/1
f 66/60/1 59/66/1 55/53/1
f 61/65/1 60/67/1 59/66/1
f 59/66/1 57/68/1 55/53/1
f 53/54/1 51/38/1 54/55/1
f 51/38/1 44/34/1 42/36/1
f 42/36/1 43/69/1 52/37/1
f 81/70/1 80/71/1 83/72/1
f 71/73/1 70/74/1 69/75/1
f 80/71/1 79/76/1 77/77/1
f 82/78/1 81/70/1 83/72/1
f 77/77/1 76/79/1 85/80/1
f 79/76/1 78/81/1 77/77/1
f 76/79/1 75/82/1 74/83/1
f 74/83/1 86/84/1 76/79/1
f 85/80/1 84/85/1 83/72/1
f 80/71/1 77/77/1 85/80/1
f 93/86/1 92/87/1 94/88/1
f 93/86/1 91/89/1 92/87/1
f 85/80/1 83/72/1 80/71/1
f 86/84/1 85/80/1 76/79/1
f 74/83/1 73/90/1 72/91/1
f 89/92/1 86/84/1 74/83/1
f 72/91/1 71/73/1 69/75/1
f 69/75/1 93/86/1 94/88/1
f 94/88/1 90/93/1 72/91/1
f 90/93/1 89/92/1 74/83/1
f 88/94/1 87/95/1 86/84/1
f 69/75/1 94/88/1 72/91/1
f 89/92/1 88/94/1 86/84/1
f 72/91/1 90/93/1 74/83/1
f 96/96/1 97/97/1 95/98/1
f 104/99/1 106/100/1 109/101/1
f 96/96/1 98/102/1 97/97/1
f 120/103/1 96/96/1 95/98/1
f 95/98/1 99/104/1 117/105/1
f 99/104/1 100/106/1 115/107/1
f 117/105/1 99/104/1 115/107/1
f 100/106/1 101/108/1 103/109/1
f 101/108/1 102/110/1 103/109/1
f 120/103/1 95/98/1 117/105/1
f 118/111/1 119/112/1 120/103/1
f 115/107/1 116/113/1 117/105/1
f 117/105/1 118/111/1 120/103/1
f 100/106/1 103/109/1 115/107/1
f 104/99/1 105/114/1 106/100/1
f 103/109/1 104/99/1 113/115/1
f 115/107/1 103/109/1 113/115/1
f 113/115/1 114/116/1 115/107/1
f 110/117/1 111/118/1 112/119/1
f 109/101/1 110/117/1 112/119/1
f 109/101/1 112/119/1 104/99/1
f 112/119/1 113/115/1 104/99/1
f 107/120/1 108/121/1 106/100/1
f 108/121/1 109/101/1 106/100/1
f 109/101/1 108/121/1 123/122/1
f 148/123/1 141/124/1 145/125/1
f 107/120/1 106/100/1 134/126/1
f 134/126/1 133/127/1 108/121/1
f 133/127/1 132/128/1 123/122/1
f 108/121/1 133/127/1 123/122/1
f 132/128/1 131/129/1 125/130/1
f 131/129/1 130/131/1 125/130/1
f 130/131/1 129/132/1 136/133/1
f 136/133/1 128/134/1 127/135/1
f 135/136/1 126/137/1 125/130/1
f 136/133/1 127/135/1 130/131/1
f 127/135/1 135/136/1 130/131/1
f 135/136/1 125/130/1 130/131/1
f 125/130/1 124/138/1 132/128/1
f 123/122/1 122/139/1 109/101/1
f 122/139/1 121/140/1 109/101/1
f 124/138/1 123/122/1 132/128/1
f 107/120/1 134/126/1 108/121/1
f 121/140/1 110/117/1 109/101/1
f 138/141/1 135/136/1 127/135/1
f 128/134/1 136/133/1 137/142/1
f 138/141/1 127/135/1 145/125/1
f 127/135/1 128/134/1 142/143/1
f 141/124/1 140/144/1 139/145/1
f 139/145/1 138/141/1 145/125/1
f 127/135/1 142/143/1 145/125/1
f 128/134/1 137/142/1 142/143/1
f 142/143/1 143/146/1 144/147/1
f 144/147/1 145/125/1 142/143/1
f 145/125/1 146/148/1 148/123/1
f 146/148/1 147/149/1 148/123/1
f 141/124/1 139/145/1 145/125/1
f 80/71/1 81/70/1 151/150/1
f 176/151/1 169/152/1 173/153/1
f 82/78/1 83/72/1 162/154/1
f 162/154/1 161/155/1 81/70/1
f 161/155/1 160/156/1 151/150/1
f 81/70/1 161/155/1 151/150/1
f 160/156/1 159/157/1 153/158/1
f 159/157/1 158/159/1 153/158/1
f 158/159/1 157/160/1 164/161/1
f 164/161/1 156/162/1 155/163/1
f 163/164/1 154/165/1 153/158/1
f 164/161/1 155/163/1 158/159/1
f 155/163/1 163/164/1 158/159/1
f 163/164/1 153/158/1 158/159/1
f 153/158/1 152/166/1 160/156/1
f 151/150/1 150/167/1 80/71/1
f 150/167/1 149/168/1 80/71/1
f 152/166/1 151/150/1 160/156/1
f 82/78/1 162/154/1 81/70/1
f 149/168/1 79/76/1 80/71/1
f 166/169/1 163/164/1 155/163/1
f 156/162/1 164/161/1 165/170/1
f 166/169/1 155/163/1 173/153/1
f 155/163/1 156/162/1 170/171/1
f 169/152/1 168/172/1 167/173/1
f 167/173/1 166/169/1 173/153/1
f 155/163/1 170/171/1 173/153/1
f 156/162/1 165/170/1 170/171/1
f 170/171/1 171/174/1 172/175/1
f 172/175/1 173/153/1 170/171/1
f 173/153/1 174/176/1 176/151/1
f 174/176/1 175/177/1 176/151/1
f 169/152/1 167/173/1 173/153/1
f 190/178/1 191/179/1 196/180/1
f 221/181/1 214/182/1 195/183/1
f 177/184/1 182/185/1 179/186/1
f 210/187/1 207/188/1 206/189/1
f 180/190/2 209/191/2 212/192/2
f 210/187/1 206/189/1 212/192/1
f 208/193/1 179/186/1 211/194/1
f 182/185/1 177/184/1 181/195/1
f 182/185/1 183/196/1 185/197/1
f 183/196/1 184/198/1 185/197/1
f 203/199/1 204/200/1 205/201/1
f 202/202/1 203/199/1 197/203/1
f 203/199/1 205/201/1 197/203/1
f 200/204/1 201/205/1 199/206/1
f 201/205/1 202/202/1 199/206/1
f 198/207/1 202/202/1 197/203/1
f 198/207/1 199/206/1 202/202/1
f 205/201/1 180/190/1 190/178/1
f 197/203/1 205/201/1 196/180/1
f 196/180/1 205/201/1 190/178/1
f 207/188/1 210/187/1 185/197/1
f 206/189/1 180/190/1 212/192/1
f 194/208/1 195/183/1 192/209/1
f 195/183/1 196/180/1 192/209/1
f 177/184/1 178/210/1 181/195/1
f 193/211/1 194/208/1 192/209/1
f 180/190/1 206/189/1 188/212/1
f 206/189/1 186/213/1 187/214/1
f 188/212/1 189/215/1 190/178/1
f 206/189/1 187/214/1 188/212/1
f 191/179/1 192/209/1 196/180/1
f 188/212/1 190/178/1 180/190/1
f 194/208/1 229/216/1 228/217/1
f 228/217/1 227/218/1 226/219/1
f 226/219/1 225/220/1 224/221/1
f 224/221/1 223/222/1 226/219/1
f 223/222/1 222/223/1 226/219/1
f 221/181/1 220/224/1 218/225/1
f 220/224/1 219/226/1 218/225/1
f 222/223/1 221/181/1 226/219/1
f 194/208/1 284/227/1 221/181/1
f 226/219/1 284/227/1 228/217/1
f 218/225/1 217/228/1 214/182/1
f 217/228/1 216/229/1 214/182/1
f 216/229/1 215/230/1 214/182/1
f 214/182/1 213/231/1 195/183/1
f 195/183/1 194/208/1 221/181/1
f 221/181/1 218/225/1 214/182/1
f 264/232/1 235/233/1 238/234/1
f 243/235/1 244/236/1 249/237/1
f 274/238/1 267/239/1 248/240/1
f 230/241/1 235/233/1 232/242/1
f 238/234/1 263/243/1 264/232/1
f 263/243/1 260/244/1 259/245/1
f 233/246/1 262/247/1 265/248/1
f 263/243/1 259/245/1 265/248/1
f 261/249/1 232/242/1 264/232/1
f 182/185/1 211/194/1 179/186/1
f 235/233/1 230/241/1 234/250/1
f 235/233/1 236/251/1 238/234/1
f 236/251/1 237/252/1 238/234/1
f 256/253/1 257/254/1 258/255/1
f 255/256/1 256/253/1 250/257/1
f 256/253/1 258/255/1 250/257/1
f 253/258/1 254/259/1 252/260/1
f 254/259/1 255/256/1 252/260/1
f 251/261/1 255/256/1 250/257/1
f 251/261/1 252/260/1 255/256/1
f 258/255/1 233/246/1 243/235/1
f 250/257/1 258/255/1 249/237/1
f 249/237/1 258/255/1 243/235/1
f 260/244/1 263/243/1 238/234/1
f 259/245/1 233/246/1 265/248/1
f 247/262/1 248/240/1 245/263/1
f 248/240/1 249/237/1 245/263/1
f 230/241/1 231/264/1 234/250/1
f 246/265/1 247/262/1 245/263/1
f 233/246/1 259/245/1 241/266/1
f 259/245/1 239/267/1 240/268/1
f 241/266/1 242/269/1 243/235/1
f 259/245/1 240/268/1 241/266/1
f 244/236/1 245/263/1 249/237/1
f 241/266/1 243/235/1 233/246/1
f 247/262/1 282/270/1 281/271/1
f 281/271/1 280/272/1 279/273/1
f 279/273/1 278/274/1 277/275/1
f 277/275/1 276/276/1 279/273/1
f 276/276/1 275/277/1 279/273/1
f 274/238/1 273/278/1 271/279/1
f 273/278/1 272/280/1 271/279/1
f 275/277/1 274/238/1 279/273/1
f 247/262/1 283/281/1 274/238/1
f 279/273/1 283/281/1 281/271/1
f 271/279/1 270/282/1 267/239/1
f 270/282/1 269/283/1 267/239/1
f 269/283/1 268/284/1 267/239/1
f 267/239/1 266/285/1 248/240/1
f 248/240/1 247/262/1 274/238/1
f 274/238/1 271/279/1 267/239/1
f 48/28/1 50/26/1 285/33/1
f 285/33/1 50/26/1 38/40/1
f 194/208/1 228/217/1 284/227/1
f 226/219/1 221/181/1 284/227/1
f 247/262/1 281/271/1 283/281/1
f 279/273/1 274/238/1 283/281/1
f 235/233/1 264/232/1 232/242/1
f 211/194/1 185/197/1 210/187/1
f 182/185/1 185/197/1 211/194/1
